<?xml version="1.0" encoding="UTF-8" standalone="no"?>
<!-- Generator: Adobe Illustrator 16.0.4, SVG Export Plug-In . SVG Version: 6.00 Build 0)  -->

<svg
   xmlns:dc="http://purl.org/dc/elements/1.1/"
   xmlns:cc="http://creativecommons.org/ns#"
   xmlns:rdf="http://www.w3.org/1999/02/22-rdf-syntax-ns#"
   xmlns:svg="http://www.w3.org/2000/svg"
   xmlns="http://www.w3.org/2000/svg"
   xmlns:sodipodi="http://sodipodi.sourceforge.net/DTD/sodipodi-0.dtd"
   xmlns:inkscape="http://www.inkscape.org/namespaces/inkscape"
   version="1.1"
   id="Layer_1"
   x="0px"
   y="0px"
   width="240"
   height="42"
   viewBox="8.5 2.5 240 42"
   enable-background="new 8.5 2.5 108 42"
   xml:space="preserve"
   inkscape:version="0.91 r13725"
   sodipodi:docname="logo.svg"><metadata
     id="metadata11"><rdf:RDF><cc:Work
         rdf:about=""><dc:format>image/svg+xml</dc:format><dc:type
           rdf:resource="http://purl.org/dc/dcmitype/StillImage" /><dc:title></dc:title></cc:Work></rdf:RDF></metadata><defs
     id="defs9" /><sodipodi:namedview
     pagecolor="#ffffff"
     bordercolor="#666666"
     borderopacity="1"
     objecttolerance="10"
     gridtolerance="10"
     guidetolerance="10"
     inkscape:pageopacity="0"
     inkscape:pageshadow="2"
     inkscape:window-width="1305"
     inkscape:window-height="841"
     id="namedview7"
     showgrid="false"
     inkscape:zoom="2.6666667"
     inkscape:cx="53.999"
     inkscape:cy="20.098"
     inkscape:window-x="0"
     inkscape:window-y="0"
     inkscape:window-maximized="0"
     inkscape:current-layer="Layer_1" /><path
     d="m 44.163,35.479 -0.977,-0.788 c -1.166,1.053 -2.668,1.69 -4.285,1.69 -1.653,0 -3.119,-0.601 -4.209,-1.728 -1.052,-1.091 -1.654,-2.557 -1.654,-4.171 0,-1.129 0.301,-2.255 0.902,-3.232 l -0.338,-0.264 -0.865,1.128 c -0.602,-0.076 -1.052,-0.487 -1.241,-1.016 l 0.902,-1.052 -4.547,-3.682 0,5.863 1.466,0 c 0.112,0.263 0.225,0.526 0.225,0.79 0,0.262 -0.075,0.524 -0.225,0.751 l -1.466,0 0,0.412 c 1.503,0.227 2.856,0.941 3.795,2.03 0.977,1.053 1.541,2.405 1.541,3.908 0,1.54 -0.563,2.895 -1.541,3.983 -0.978,1.053 -2.292,1.768 -3.795,1.992 l 0,1.241 c -0.3,0.188 -0.639,0.264 -0.939,0.264 -0.338,0 -0.639,-0.076 -0.939,-0.264 l 0,-1.241 c -1.428,-0.225 -2.818,-0.939 -3.795,-2.029 -0.939,-1.052 -1.503,-2.405 -1.503,-3.946 0,-1.503 0.563,-2.855 1.503,-3.908 0.977,-1.053 2.292,-1.767 3.795,-1.991 l 0,-0.414 -1.466,0 c -0.113,-0.264 -0.225,-0.489 -0.225,-0.753 0,-0.299 0.074,-0.562 0.263,-0.825 l 1.428,0 0,-5.863 -4.51,3.682 0.865,1.052 c -0.15,0.527 -0.639,0.902 -1.202,1.016 l -0.865,-1.128 -0.338,0.264 c 0.563,0.978 0.902,2.104 0.902,3.232 0,1.652 -0.639,3.08 -1.691,4.171 -1.09,1.127 -2.518,1.728 -4.171,1.728 -1.653,0 -3.119,-0.601 -4.284,-1.69 L 9.703,35.518 C 9.064,35.291 8.613,34.767 8.501,34.051 L 9.516,33.225 C 8.915,32.248 8.577,31.196 8.577,29.956 c 0,-1.616 0.639,-3.083 1.691,-4.135 1.09,-1.089 2.518,-1.765 4.171,-1.765 1.578,0 3.12,0.639 4.285,1.691 l 0.337,-0.265 -0.939,-1.052 c 0.188,-0.565 0.639,-0.94 1.203,-1.053 l 0.902,1.166 5.187,-4.209 -5.187,-4.134 -0.676,0.789 0.978,0.79 -0.79,0.939 -0.977,-0.79 -0.677,0.864 0.977,0.791 -0.788,0.939 -2.593,-2.105 2.706,-1.54 -0.752,-0.639 -2.592,1.541 0.939,-2.856 -0.751,-0.639 -0.976,3.006 -2.631,-2.104 0.79,-1.015 0.977,0.79 0.676,-0.827 -0.978,-0.789 0.79,-0.977 0.977,0.788 0.676,-0.826 -2.141,-1.691 c 0.113,-0.714 0.563,-1.314 1.202,-1.502 l 11.388,9.169 0,-6.088 -1.09,0 0,1.241 -1.241,0 0,-1.241 -1.09,0 0,1.241 -1.24,0 0,-3.383 2.931,1.202 0,-0.939 -2.818,-1.126 2.818,-1.09 0,-0.941 -2.931,1.167 0,-3.42 1.24,0 0,1.241 1.053,0 0,-1.241 1.278,0 0,1.241 1.052,0 0,-2.745 c 0.3,-0.189 0.676,-0.262 0.977,-0.262 0.301,0 0.677,0.073 0.939,0.3 l 0,14.883 11.381,-9.209 c 0.676,0.188 1.127,0.789 1.241,1.465 l -2.143,1.729 0.677,0.826 0.977,-0.788 0.751,0.977 -0.976,0.789 0.714,0.827 0.977,-0.79 0.751,0.978 -2.631,2.142 -0.976,-3.006 -0.714,0.639 0.939,2.856 -2.631,-1.541 -0.751,0.601 2.706,1.578 -2.593,2.105 -0.752,-0.939 0.939,-0.791 -0.677,-0.864 -0.977,0.79 -0.751,-0.939 0.978,-0.79 -0.714,-0.79 -5.149,4.134 5.112,4.208 0.939,-1.165 c 0.564,0.112 1.015,0.486 1.203,1.013 l -0.902,1.092 0.301,0.264 c 1.203,-1.054 2.705,-1.691 4.284,-1.691 1.654,0 3.082,0.638 4.171,1.765 1.052,1.053 1.69,2.52 1.69,4.136 0,1.239 -0.3,2.291 -0.902,3.268 l 0.978,0.789 c -0.076,0.715 -0.49,1.241 -1.166,1.465 z M 18.646,30.105 c -0.3,-0.375 -0.714,-0.6 -1.202,-0.6 -0.977,0 -1.766,0.751 -1.766,1.69 0,0.788 0.639,1.577 1.541,1.69 l -1.241,0.978 C 15.527,33.675 15.076,33.3 14.738,32.847 14.4,32.36 14.211,31.872 14.211,31.345 c 0,-0.301 0.039,-0.562 0.151,-0.789 -0.151,0 -0.263,0 -0.413,0 -0.563,0 -1.128,-0.264 -1.616,-0.714 -0.451,-0.451 -0.79,-1.016 -0.902,-1.615 l 1.203,-0.978 c -0.037,0.488 0.113,0.938 0.414,1.278 0.338,0.376 0.789,0.601 1.24,0.601 0.451,0 0.865,-0.188 1.202,-0.524 0.339,-0.303 0.526,-0.753 0.526,-1.203 0,-0.489 -0.226,-0.94 -0.639,-1.278 -0.376,-0.34 -0.902,-0.526 -1.39,-0.526 -1.052,0 -2.03,0.563 -2.744,1.466 -0.713,0.826 -1.127,1.918 -1.127,2.933 0,0.863 0.225,1.576 0.601,2.328 l 0.865,-0.752 c 0.639,0.226 1.052,0.752 1.165,1.428 l -0.902,0.714 c 0.865,0.751 1.917,1.203 3.082,1.203 0.939,0 1.954,-0.376 2.781,-0.978 0.865,-0.639 1.427,-1.54 1.427,-2.518 -0.001,-0.451 -0.188,-0.938 -0.489,-1.316 z M 29.245,33 c -0.939,0 -1.579,0.788 -1.579,1.729 0,0.9 0.751,1.652 1.654,1.652 0.414,0 0.827,-0.113 1.241,-0.525 l 0,1.578 c -0.451,0.188 -0.902,0.339 -1.315,0.339 -1.015,0 -1.804,-0.301 -2.331,-1.128 -0.488,0.789 -1.278,1.128 -2.292,1.128 -0.451,0 -0.902,-0.113 -1.353,-0.339 l 0,-1.578 c 0.414,0.375 0.827,0.525 1.24,0.525 0.902,0 1.654,-0.752 1.654,-1.652 0,-0.941 -0.639,-1.729 -1.578,-1.729 -0.865,0 -1.428,0.415 -1.841,1.015 -0.339,0.563 -0.527,1.315 -0.527,2.105 0,1.126 0.376,2.143 1.09,2.894 0.676,0.789 1.578,1.353 2.668,1.54 l 0,-1.127 c 0.3,-0.15 0.639,-0.265 0.939,-0.265 0.339,0 0.677,0.114 0.939,0.265 l 0,1.127 c 1.09,-0.188 2.029,-0.751 2.706,-1.503 0.676,-0.788 1.089,-1.805 1.089,-2.931 0,-1.653 -0.676,-3.12 -2.404,-3.12 z m 13.377,-5.976 c -0.714,-0.863 -1.653,-1.427 -2.743,-1.427 -0.489,0 -0.977,0.188 -1.391,0.526 -0.375,0.301 -0.639,0.75 -0.639,1.278 0,0.45 0.188,0.863 0.488,1.203 0.339,0.339 0.79,0.524 1.241,0.524 0.451,0 0.827,-0.188 1.166,-0.524 0.301,-0.303 0.488,-0.678 0.488,-1.092 l 0,-0.263 1.202,0.978 c -0.112,0.6 -0.414,1.165 -0.865,1.615 -0.488,0.45 -1.052,0.714 -1.653,0.714 -0.113,0 -0.263,0 -0.414,0 0.113,0.227 0.151,0.488 0.151,0.789 0,0.527 -0.188,1.053 -0.526,1.502 -0.338,0.451 -0.79,0.828 -1.24,1.016 l -1.241,-0.978 c 0.902,-0.113 1.541,-0.902 1.541,-1.69 0,-0.939 -0.79,-1.69 -1.766,-1.69 -0.488,0 -0.902,0.226 -1.203,0.6 -0.301,0.378 -0.451,0.864 -0.451,1.316 0,0.978 0.526,1.879 1.391,2.518 0.828,0.602 1.841,0.978 2.78,0.978 1.166,0 2.18,-0.45 3.083,-1.203 L 41.118,33 c 0.075,-0.676 0.488,-1.203 1.166,-1.428 l 0.865,0.714 c 0.376,-0.714 0.601,-1.427 0.601,-2.29 -10e-4,-1.054 -0.414,-2.106 -1.128,-2.972 z"
     id="path3"
     inkscape:connector-curvature="0" /><text
     xml:space="preserve"
     style="font-style:normal;font-weight:normal;font-size:40px;line-height:125%;font-family:sans-serif;letter-spacing:0px;word-spacing:0px;fill:#000000;fill-opacity:1;stroke:none;stroke-width:1px;stroke-linecap:butt;stroke-linejoin:miter;stroke-opacity:1"
     x="52.875"
     y="37.875"
     id="text3339"
     sodipodi:linespacing="125%"><tspan
       sodipodi:role="line"
       id="tspan3341"
       x="52.875"
       y="37.875"
       style="font-style:normal;font-variant:normal;font-weight:600;font-stretch:normal;font-family:'A-OTF Kocho Std';-inkscape-font-specification:'A-OTF Kocho Std Semi-Bold';letter-spacing:-1.60000002px;fill:#ff0000">Elite Bank</tspan></text>
</svg>